PathFileType	4	(X/Y/Z)	./resultDataOpenSim/trcMotMarkerGrf/sub09/qtm-02-01.trc
DataRate	CameraRate	NumFrames	NumMarkers	Units	OrigDataRate	OrigDataStartFrame	OrigNumFrames
250.000000	250.000000	9	24	m	250.000000	244	486
Frame#	Time	L.Toe.Tip			R.Toe.Tip			L.Ankle.Lat			R.Ankle.Lat			L.Ankle.Med			R.Ankle.Med			L.Heel			R.Heel			L.Knee.Lat			R.Knee.Lat			L.Knee.Med			R.Knee.Med			L.Thigh.Upper			R.Thigh.Upper			L.ASIS			R.ASIS			V.Sacral			L.Acromium			R.Acromium			C7			L.Elbow			R.Elbow			L.Wrist.Lat			R.Wrist.Lat
		X1	Y1	Z1	X2	Y2	Z2	X3	Y3	Z3	X4	Y4	Z4	X5	Y5	Z5	X6	Y6	Z6	X7	Y7	Z7	X8	Y8	Z8	X9	Y9	Z9	X10	Y10	Z10	X11	Y11	Z11	X12	Y12	Z12	X13	Y13	Z13	X14	Y14	Z14	X15	Y15	Z15	X16	Y16	Z16	X17	Y17	Z17	X18	Y18	Z18	X19	Y19	Z19	X20	Y20	Z20	X21	Y21	Z21	X22	Y22	Z22	X23	Y23	Z23	X24	Y24	Z24

244	0.972	0.15704759	0.014082528	0.025876638	0.41571974	0.09514835	0.13700186	0.0093084338	0.056144602	-0.013495353	0.2709653	0.1187919	0.1580649	0.034829369	0.076558596	0.080604003	0.2912778	0.14877586	0.064356385	-0.063143697	0.029278669	0.032839186	0.20528747	0.095027301	0.10499081	0.12103376	0.45559187	-0.077905377	0.39216378	0.5558837	0.18154033	0.12305375	0.45982938	0.047221686	0.38316814	0.53818359	0.056407771	0.14500097	0.87828284	-0.13941724	0.1621328	0.89132007	0.23078737	0.23711462	0.96303812	-0.081834125	0.23439727	0.97548528	0.15715066	0.071146055	1.0248625	0.040058385	0.2410703	1.4169754	-0.12814194	0.1997449	1.4367897	0.19854429	0.15524587	1.4765963	0.027302093	0.11507622	1.0655515	-0.20296563	0.048496934	1.1083205	0.2892003	0.32707617	0.89565544	-0.21382756	0.17484154	0.86814645	0.32191776
245	0.976	0.15708628	0.014081924	0.025797825	0.43485748	0.095416396	0.13574519	0.0093373298	0.056513609	-0.013181716	0.28908193	0.11588078	0.15758573	0.03515321	0.076858892	0.080821494	0.3088015	0.14650713	0.063830433	-0.063037634	0.029869948	0.033279982	0.22444955	0.090741032	0.10453865	0.12179061	0.45585867	-0.07776881	0.39923222	0.55640065	0.18138041	0.12400014	0.46001106	0.047341338	0.38991192	0.53852547	0.056240657	0.149386	0.87819903	-0.1393052	0.16807794	0.89102104	0.23092481	0.24245874	0.96265338	-0.082077797	0.2401655	0.97515769	0.15700188	0.076660692	1.0246097	0.04024765	0.24678448	1.4166644	-0.12824651	0.205787	1.4363967	0.1985202	0.16112097	1.4762952	0.027207322	0.12127982	1.0647883	-0.20329647	0.054326859	1.108112	0.28908204	0.33450643	0.89653868	-0.2134236	0.18004448	0.86768104	0.32213625
246	0.98	0.15711582	0.014117269	0.025690899	0.45388399	0.095792206	0.13447721	0.0093516274	0.056904295	-0.012838912	0.30718772	0.11313566	0.15705701	0.035519832	0.077170702	0.081019815	0.32634844	0.14439023	0.063218211	-0.062950248	0.0304733	0.033779674	0.24336979	0.086740082	0.1042541	0.12251835	0.45614021	-0.07763713	0.40611084	0.55679891	0.18125881	0.12500698	0.46019701	0.047390924	0.39669936	0.53874859	0.05612627	0.1548041	0.87811944	-0.13882014	0.17400598	0.89065912	0.23105999	0.24782145	0.96223335	-0.082307602	0.24595318	0.97476335	0.15685703	0.082087328	1.0243173	0.040172535	0.25249768	1.4163214	-0.1283387	0.2118204	1.4359762	0.19850045	0.16702528	1.4759387	0.027225714	0.12731829	1.0639752	-0.20344529	0.06017584	1.1078602	0.28894436	0.34188569	0.8973712	-0.21300774	0.18528218	0.86716864	0.32234852
247	0.984	0.15712478	0.014179835	0.025593088	0.47280626	0.096247672	0.13319405	0.0093420681	0.057331913	-0.01247664	0.32547896	0.11052626	0.15642832	0.035974758	0.077504739	0.081149012	0.34390942	0.14242321	0.062524371	-0.062892118	0.031079445	0.034410684	0.26207998	0.083002443	0.10408185	0.12322691	0.45642389	-0.077529036	0.41283228	0.55711611	0.18114517	0.12601175	0.46036815	0.047387279	0.40353344	0.53885827	0.056085044	0.1611226	0.87802271	-0.13791686	0.17991494	0.8902425	0.23119242	0.25320091	0.9617725	-0.082527856	0.25177625	0.97430908	0.15671874	0.087388033	1.023997	0.03974691	0.25821902	1.4159484	-0.12841506	0.21785126	1.4355247	0.19848812	0.17293891	1.4755249	0.027278895	0.13319223	1.0631492	-0.20335881	0.066023075	1.1075621	0.28881694	0.34922013	0.8981519	-0.21257677	0.19056294	0.86661143	0.32255916
248	0.988	0.15711492	0.014234574	0.025540644	0.49166078	0.09676434	0.13189201	0.0093142525	0.057789721	-0.012112446	0.34391218	0.1080709	0.15570187	0.03654225	0.077869393	0.081190368	0.36147216	0.14060073	0.061771395	-0.062861147	0.031696755	0.03520845	0.28078123	0.079468904	0.1038526	0.12392622	0.45670798	-0.077456858	0.41943716	0.55739453	0.18101058	0.126801	0.46046358	0.047509642	0.41032542	0.53885134	0.056058708	0.1675898	0.87785888	-0.13695277	0.18580248	0.88977437	0.23132172	0.25860185	0.96126935	-0.08274837	0.25764388	0.97380195	0.15658844	0.092659781	1.0236369	0.039187113	0.26395843	1.4155445	-0.12847201	0.22388734	1.4350374	0.19848399	0.17885542	1.475065	0.027329219	0.13909423	1.0623347	-0.20321685	0.071911725	1.1072166	0.2887241	0.35651696	0.89887739	-0.212132	0.19588854	0.86601117	0.32276883
249	0.992	0.15710113	0.014253086	0.025525562	0.51047338	0.097351492	0.1305796	0.0092819562	0.058263921	-0.011758865	0.36236792	0.10579856	0.15490147	0.037163936	0.078263533	0.081203333	0.3790249	0.13893199	0.060981519	-0.062833666	0.032352264	0.036083523	0.29962123	0.07611222	0.1034588	0.12461924	0.45700274	-0.077426495	0.42592975	0.55765033	0.18085888	0.12734459	0.46047785	0.047989261	0.41697981	0.53871297	0.055986738	0.1734952	0.87758708	-0.13643329	0.19166273	0.88925194	0.23144394	0.26403826	0.96073013	-0.082970836	0.26355155	0.97324492	0.1564631	0.098062159	1.0232036	0.03885632	0.26971226	1.4151065	-0.12851418	0.22993297	1.4345117	0.1984858	0.18477608	1.4745737	0.027368924	0.14520895	1.0615132	-0.20324035	0.077910694	1.1068124	0.28868809	0.36377406	0.89954541	-0.21168069	0.20125316	0.86536777	0.32297313
250	0.996	0.15709504	0.014239055	0.025508549	0.52922274	0.098049256	0.12927907	0.0092498323	0.058757721	-0.011409901	0.38076155	0.10373534	0.15405336	0.037740661	0.078682701	0.081279707	0.39655514	0.13743508	0.06016191	-0.062779255	0.033066968	0.036892897	0.31859067	0.072960828	0.10287819	0.12531044	0.45732033	-0.077446715	0.43226328	0.5578015	0.1807392	0.12823247	0.46060364	0.048961209	0.42347375	0.53843077	0.055889372	0.17872344	0.87722017	-0.13650537	0.19749592	0.88867274	0.23155631	0.26952477	0.96016364	-0.083186323	0.26948141	0.97263773	0.1563381	0.10365438	1.0226813	0.038877011	0.27546355	1.4146304	-0.12855333	0.23599025	1.4339485	0.1984893	0.19070072	1.4740491	0.027405338	0.15152249	1.0606745	-0.20344742	0.084011333	1.1063433	0.28871342	0.37098654	0.90015668	-0.21122749	0.20664773	0.8646807	0.32316862
251	1	0.1570977	0.01421235	0.025465046	0.54785293	0.098908173	0.12801674	0.0092136405	0.059286241	-0.011048672	0.39905378	0.10190303	0.15317314	0.038237407	0.079130546	0.08144961	0.41404248	0.13612696	0.059305107	-0.062686389	0.033839893	0.037589763	0.33759023	0.070063484	0.10210728	0.12601794	0.45766567	-0.077528855	0.43839849	0.55771799	0.18070299	0.13051277	0.46120055	0.050432924	0.4298646	0.53801123	0.055857889	0.18358564	0.87680701	-0.13694174	0.20331286	0.88803708	0.23166175	0.27506541	0.95957225	-0.083390476	0.2754171	0.97198172	0.15621253	0.10940009	1.0220893	0.039069848	0.28120552	1.414115	-0.12859265	0.2420562	1.4333525	0.19849346	0.19662487	1.4734771	0.027450273	0.15786354	1.0598545	-0.20365748	0.09009322	1.1058255	0.28878508	0.37815552	0.90071179	-0.21077359	0.21206789	0.86395214	0.32335373
252	1.004	0.15710583	0.014187408	0.025397332	0.5663212	0.099958424	0.12680237	0.0091759579	0.059852556	-0.010665177	0.41723659	0.10031193	0.15225116	0.038687196	0.079615147	0.081673372	0.43145593	0.13502449	0.058398513	-0.062564096	0.034659516	0.038218523	0.35653163	0.067446155	0.10116001	0.12677099	0.45803144	-0.077671973	0.44439935	0.55737867	0.18074619	0.13431207	0.46235088	0.051894986	0.43622266	0.5374746	0.055973197	0.1884236	0.87638283	-0.13749923	0.20912348	0.88734546	0.23176433	0.28065027	0.95895078	-0.08359213	0.28135809	0.97127857	0.15608755	0.11529116	1.0214516	0.039187322	0.28694312	1.4135628	-0.12862802	0.24812485	1.4327286	0.1985022	0.20254381	1.4728584	0.027512395	0.16407959	1.0590758	-0.20370061	0.096081003	1.1052783	0.28888516	0.38528421	0.90120865	-0.21032059	0.21752309	0.86318618	0.32352871
